<svg xmlns="http://www.w3.org/2000/svg" xmlns:xlink="http://www.w3.org/1999/xlink" style="display: none">

  <symbol id="portfolio" viewBox="0 0 24 24">
    <path fill="white" d="M20 6h-4.586l-1.707-1.707A1 1 0 0 0 13 4h-2a1 1 0 0 0-.707.293L8.586 6H4a2 2 0 0 0-2 2v10a2 2 0 0 0 2 2h16a2 2 0 0 0 2-2V8a2 2 0 0 0-2-2zm-8-1h1.586L15 6H9l1.414-1.414A1 1 0 0 1 11 5zm9 13H3V8h18z"/>
  </symbol>

  <!-- LinkedIn original (blanco sobre azul) -->
  <symbol id="linkedin" viewBox="0 0 24 24">
    <path fill="#0A66C2" d="M22.23 0H1.77C.79 0 0 .774 0 1.729v20.542C0 23.227.79 24 1.77 24h20.46C23.21 24 24 23.227 24 22.271V1.729C24 .774 23.21 0 22.23 0z"/>
    <path fill="#fff" d="M7.06 20.452H3.56V9h3.5v11.452zM5.31 7.433a2.034 2.034 0 1 1 .001-4.067 2.034 2.034 0 0 1 0 4.067zM20.452 20.452h-3.497v-5.622c0-1.34-.028-3.065-1.868-3.065-1.869 0-2.155 1.46-2.155 2.968v5.719h-3.496V9h3.36v1.561h.048c.468-.888 1.609-1.824 3.313-1.824 3.543 0 4.196 2.333 4.196 5.365v6.35z"/>
  </symbol>

  <!-- GitHub blanco -->
  <symbol id="github" viewBox="0 0 24 24">
    <path fill="white" d="M12 .297c-6.63 0-12 5.373-12 12 0 5.303 3.438 9.8 8.205 11.387.6.113.82-.258.82-.577v-2.234c-3.338.724-4.033-1.416-4.033-1.416-.546-1.387-1.333-1.757-1.333-1.757-1.089-.745.083-.729.083-.729 1.205.084 1.838 1.234 1.838 1.234 1.07 1.835 2.807 1.305 3.492.998.108-.775.418-1.305.762-1.605-2.665-.305-5.466-1.332-5.466-5.932 0-1.312.469-2.383 1.236-3.222-.124-.303-.536-1.523.117-3.176 0 0 1.008-.322 3.3 1.23.957-.266 1.983-.399 3.003-.404 1.02.005 2.047.138 3.006.404 2.289-1.552 3.294-1.23 3.294-1.23.655 1.653.243 2.873.12 3.176.77.839 1.233 1.91 1.233 3.222 0 4.61-2.807 5.624-5.479 5.921.43.371.823 1.102.823 2.222v3.293c0 .319.218.694.825.576C20.565 22.092 24 17.592 24 12.297c0-6.627-5.373-12-12-12"/>
  </symbol>

</svg>