<svg xmlns="http://www.w3.org/2000/svg" xmlns:xlink="http://www.w3.org/1999/xlink" style="display: none">

  <!-- Símbolo para Portfolio -->
  <symbol id="portfolio" viewBox="0 0 48 48">
    <path fill="#FF5722" d="M40,12H22l-4-4H8c-2.2,0-4,1.8-4,4v8h40v-4C44,13.8,42.2,12,40,12z"/>
    <path fill="#FF8A65" d="M40,12H8c-2.2,0-4,1.8-4,4v20c0,2.2,1.8,4,4,4h32c2.2,0,4-1.8,4-4V16C44,13.8,42.2,12,40,12z"/>
    <circle fill="#FF3D00" cx="35" cy="25" r="3"/>
    <path fill="#FFCCBC" d="M20,26c0,1.1-0.9,2-2,2s-2-0.9-2-2s0.9-2,2-2S20,24.9,20,26z"/>
  </symbol>

  <!-- Símbolo para LinkedIn -->
  <symbol id="linkedin" viewBox="0 0 48 48">
    <path fill="#0288D1" d="M42,37c0,2.762-2.238,5-5,5H11c-2.761,0-5-2.238-5-5V11c0-2.762,2.239-5,5-5h26c2.762,0,5,2.238,5,5V37z"/>
    <path fill="#FFF" d="M12 19H17V36H12zM14.485 17h-.028C12.965 17 12 15.888 12 14.499 12 13.08 12.995 12 14.514 12c1.521 0 2.458 1.08 2.486 2.499C17 15.887 16.035 17 14.485 17zM36 36h-5v-9.099c0-2.198-1.225-3.698-3.192-3.698-1.501 0-2.313 1.012-2.707 1.99C24.957 25.543 25 26.511 25 27v9h-5V19h5v2.616C25.721 20.5 26.85 19 29.738 19c3.578 0 6.261 2.25 6.261 7.274L36 36 36 36z"/>
  </symbol>

  <!-- Símbolo para GitHub -->
  <symbol id="github" viewBox="0 0 64 64">
    <path fill="#333" d="M32 6C17.641 6 6 17.641 6 32c0 12.277 8.512 22.56 19.955 25.286-.592-.141-1.179-.299-1.755-.479V50.85c0 0-.975.325-2.275.325-3.637 0-5.148-3.245-5.525-4.875-.229-.993-.827-1.934-1.469-2.509-.767-.684-1.126-.686-1.131-.92-.01-.491.658-.471.975-.471 1.625 0 2.857 1.729 3.429 2.623 1.417 2.207 2.938 2.577 3.721 2.577.975 0 1.817-.146 2.397-.426.268-1.888 1.108-3.57 2.478-4.774-6.097-1.219-10.4-4.716-10.4-10.4 0-2.928 1.175-5.619 3.133-7.792C19.333 23.641 19 22.494 19 20.625c0-1.235.086-2.751.65-4.225 0 0 3.708.026 7.205 3.338C28.469 19.268 30.196 19 32 19s3.531.268 5.145.738c3.497-3.312 7.205-3.338 7.205-3.338.567 1.474.65 2.99.65 4.225 0 2.015-.268 3.19-.432 3.697C46.466 26.475 47.6 29.124 47.6 32c0 5.684-4.303 9.181-10.4 10.4 1.628 1.43 2.6 3.513 2.6 5.85v8.557c-.576.181-1.162.338-1.755.479C49.488 54.56 58 44.277 58 32 58 17.641 46.359 6 32 6z"/>
  </symbol>

</svg>